# xmcd
#
# Track frame offsets: 
#        150
#        18902
#        31977
#        44191
#        61737
#        78587
#        87021
#        109572
#        122576
#        138410
#        164709
#        180692
#        191867
#        205627
#        219944
#        236479
#        247187
#        259948
#        275508
#        291183
#        305415
#        319723
#        341819
#
# Disc length: 4768 seconds
#
# Revision: 0
# Processed by: cddbd v1.5.2PL0 Copyright (c) Steve Scherf et al.
# Submitted via: ExactAudioCopy v1.3
#
DISCID=56129e17
DTITLE=Various Artist - Akella Presents - vol. 182 - Rockin' Rollers 
DTITLE=Blues  CD1
DYEAR=2019
DGENRE=Rock and Roll
TTITLE0=Ron Evans Group - Rock Is My Business
TTITLE1=Marc Parent - All Mine
TTITLE2=Pat Finochio - Big Old Broken Heart
TTITLE3=George Benson - Nadine (Is It You)
TTITLE4=Marc Parent - Built For Speed
TTITLE5=Uni Debess - Blue Suede Shoes
TTITLE6=Blues Company - One Shot
TTITLE7=R.J. Mischo - I Got You Covered
TTITLE8=Greg Baker and Highway 61 - Cold Turkey Blues
TTITLE9=Dana Gillespie and Mojo Blues Band - Seacruise and Choo Choo Ch' B
TTITLE9=oogie
TTITLE10=Billy C. Farlow - Crazy Little Mama
TTITLE11=Johnny Hoy and the Bluefish - Glad She's Gone
TTITLE12=Kent Earl Housman - Girls in Pickups
TTITLE13=Ryan Foret and Foret Tradition - Jailbird
TTITLE14=Frankie Spellman - Holly Hell
TTITLE15=Big Joe and The Dynaflows - Go on Fool
TTITLE16=Griff Hamlin and The Single Barrel Blues Band - Down And Out
TTITLE17=Tommy Z - Going to a Party
TTITLE18=Call Me Mildy - Runnin'
TTITLE19=Dave Hole - Out Of Here
TTITLE20=Mick Clarke - It Don't Stop Rockin'
TTITLE21=Beki Brindle Band - Satisfied
TTITLE22=The Deacons - Bloodshot Eyes
EXTD=
EXTT0=
EXTT1=
EXTT2=
EXTT3=
EXTT4=
EXTT5=
EXTT6=
EXTT7=
EXTT8=
EXTT9=
EXTT10=
EXTT11=
EXTT12=
EXTT13=
EXTT14=
EXTT15=
EXTT16=
EXTT17=
EXTT18=
EXTT19=
EXTT20=
EXTT21=
EXTT22=
PLAYORDER=
